<?xml version="1.0" encoding="UTF-8" standalone="no"?>
<!DOCTYPE svg PUBLIC "-//W3C//DTD SVG 1.1//EN" "http://www.w3.org/Graphics/SVG/1.1/DTD/svg11.dtd">
<svg width="100%" height="100%" viewBox="0 0 736 944" version="1.1" xmlns="http://www.w3.org/2000/svg" xmlns:xlink="http://www.w3.org/1999/xlink" xml:space="preserve" xmlns:serif="http://www.serif.com/" style="fill-rule:evenodd;clip-rule:evenodd;stroke-linejoin:round;stroke-miterlimit:2;">
    <path d="M405.012,787.5C401.238,793.764 396.865,797.55 390.051,792.81C387.968,795.223 388.419,797.471 388.401,799.582C388.323,808.58 388.588,817.59 388.215,826.575C387.712,838.687 386.005,850.381 376.49,859.518C372.698,863.161 370.022,867.958 366.775,872.182C365.887,873.338 364.817,875.213 363.291,874.548C358.493,872.458 357.524,876.099 356.13,878.994C350.283,891.133 342.469,901.809 332.741,911.124C326.916,916.701 320.563,915.651 317.142,908.405C315.781,905.521 314.866,902.497 314.664,899.302C314.487,896.511 313.249,895.31 310.281,895.098C302.378,894.533 298.892,890.849 298.876,882.945C298.846,868.863 304.616,856.432 310.398,844.03C312.485,839.553 315.34,835.391 316.39,830.131C314.964,830.131 313.818,830.23 312.695,830.114C307.028,829.525 304.154,825.529 305.51,820.017C307.4,812.337 311.151,805.445 314.837,798.538C317.404,793.727 320.312,789.066 321.349,783.929C320.642,782.446 319.647,782.376 318.629,782.291C311.969,781.732 309.306,778.982 308.774,772.301C308.065,763.387 309.484,754.7 311.687,746.134C313.248,740.07 318.463,736.363 321.809,731.439C322.818,729.954 324.313,728.788 324.739,726.483C322.019,725.817 320.29,727.66 318.467,728.703C311.84,732.491 305.297,735.582 297.387,736.902C280.931,739.647 265.726,746.917 250.245,752.987C245.167,754.978 242.242,759.258 240.041,764.129C234.223,776.998 226.986,788.823 215.794,797.908C212.334,800.717 209.384,804.214 206.472,807.628C200.365,814.789 197.648,823.561 195.139,832.407C192.936,840.178 190.199,847.597 183.254,852.654C176.407,857.639 170.629,857.349 164.505,851.405C160.115,847.144 157.191,841.902 154.804,836.387C152.228,830.434 149.64,824.445 147.691,818.272C144.461,808.045 139.574,799.134 131.25,792.038C125.28,786.948 122.287,779.712 119.73,772.428C117.876,767.148 114.711,762.791 109.652,760.534C94.526,753.786 94.724,741.484 102.065,728.388C106.938,719.696 114.888,714.862 125.123,715.074C129.903,715.173 132.06,714.025 131.9,708.709C131.778,704.651 132.728,700.41 133.96,696.488C137.535,685.111 145.907,680.45 157.604,683.046C160.349,683.655 163.097,684.515 165.648,685.686C170.718,688.013 175.955,688.187 181.302,687.444C190.278,686.196 196.538,690.763 197.62,699.524C198.614,707.569 197.533,715.102 192.364,721.748C189.664,725.219 189.119,729.136 190.104,733.554C192.06,742.319 193.584,751.181 195.314,759.997C195.687,761.892 195.649,764.025 198.027,765.268C201.878,761.928 203.412,757.119 204.238,752.624C208.392,730.015 223.212,715.826 241.492,704.313C252.058,697.658 262.745,691.168 273.632,685.057C280.379,681.27 282.948,676.337 281.519,668.652C279.049,655.371 282.588,643.085 287.901,630.893C298.825,605.826 306.314,579.529 314.243,553.419C315.987,547.68 314.198,541.82 311.505,536.501C305.701,525.034 301.5,513.298 303.602,500.08C304.736,492.948 307.033,486.227 309.677,479.571C314.569,467.255 313.389,454.774 310.636,442.25C309.911,438.951 307.126,438.536 304.595,437.833C292.399,434.445 280.137,431.187 268.78,425.452C240.335,411.09 209.26,405.581 178.66,398.469C176.245,397.907 173.594,397.831 171.251,398.832C164.592,401.676 157.82,400.934 151.244,399.119C145.743,397.6 140.162,400.771 138.235,406.233C136.28,411.772 135.372,417.522 134.346,423.238C133.606,427.359 132.661,431.389 131.239,435.306C127.081,446.754 116.095,451.444 104.863,446.716C102.756,445.829 101.999,444.252 101.282,442.285C97.782,432.689 99.497,423.252 101.965,413.833C102.513,411.742 103.147,409.715 102.427,407.086C95.829,410.618 90.767,415.719 85.032,419.867C78.701,424.446 72.776,429.71 65.265,432.346C52.163,436.946 49.584,434.519 45.906,421.34C42.255,408.259 48.054,397.997 58.111,389.897C65.467,383.972 73.889,380.099 82.937,377.365C86.018,376.434 90.959,376.048 90.459,371.538C89.994,367.345 85.159,368.203 82.14,367.646C74.644,366.263 66.872,367.029 59.43,364.842C54.756,363.468 50.494,361.273 46.162,359.129C38.769,355.47 36.57,349.444 37.904,341.81C38.886,336.193 43.772,333.931 48.001,331.507C56.394,326.696 65.641,326.853 74.768,328.467C85.566,330.376 96.252,332.91 107,335.105C108.782,335.469 110.643,335.423 112.453,335.675C116.9,336.295 118.977,334.362 120.209,330.017C122.886,320.585 124.868,310.898 129.217,302.003C134.712,290.761 143.862,283.866 155.889,281.386C169.142,278.653 178.257,289.625 174.029,302.511C170.333,313.777 162.738,322.835 156.884,332.875C153.349,338.937 150.148,345.07 148.034,351.824C146.744,355.948 148.039,357.682 151.856,358.634C164.93,361.893 177.89,365.678 191.064,368.453C210.262,372.495 229.374,376.948 248.704,380.4C259.347,382.3 270.018,382.191 280.563,381.343C291.139,380.492 301.464,382.06 311.903,382.372C315.544,382.48 319.164,383.212 322.805,383.361C328.545,383.596 331.714,380.491 331.121,374.757C330.541,369.148 329.29,363.608 328.349,358.035C327.852,355.092 326.126,353.955 323.162,353.864C316.134,353.649 309.811,356.358 303.335,358.381C296.347,360.565 289.445,363.022 282.504,365.356C271.021,369.218 259.721,368.848 248.289,364.701C235.68,360.127 235.615,360.366 231.337,347.668C229.212,341.36 227.118,335.034 224.725,328.826C223.589,325.878 223.61,323.37 225.546,320.881C228.97,316.479 231.088,311.462 232.764,306.172C234.546,300.55 237.793,296.036 243.619,293.914C247.472,292.51 249.045,289.123 250.499,285.764C251.672,283.052 253.206,281.718 256.412,281.509C261.655,281.169 266.759,280.514 271.332,276.849C274.352,274.43 278.754,275.824 282.442,276.994C287.352,278.552 292.227,280.228 297.07,281.982C300.369,283.178 302.107,281.515 302.272,278.678C302.709,271.159 306.607,265.009 310.159,258.914C318.128,245.238 314.469,235.179 304.447,224.78C300.633,220.822 296.734,216.942 292.814,213.088C285.084,205.49 279.764,196.81 279.548,185.543C279.432,179.528 277.168,173.971 273.327,169.533C264.293,159.094 263.347,146.897 265.171,134.213C268.642,110.079 276.593,87.045 283.218,63.693C283.992,60.963 285.537,58.561 288.031,56.882C293.699,53.069 297.013,53.991 299.345,60.331C305.161,76.148 309.237,92.461 312.345,108.983C316.206,129.504 324.075,148.411 333.953,166.657C339.104,176.17 343.703,185.981 348.557,195.655C349.515,197.563 350.22,199.71 353.191,200.415C356.394,196.184 357.418,190.921 358.727,185.896C362.206,172.541 365.401,159.112 368.658,145.699C370.24,139.18 373.62,133.979 378.591,129.362C390.555,118.253 395.849,103.515 399.678,88.153C402.252,77.83 403.552,67.198 406.989,57.088C408.163,53.635 409.648,50.246 411.369,47.031C413.711,42.653 419.312,42.157 422.576,45.997C426.037,50.068 429.017,54.444 430.606,59.681C436.257,78.302 442.531,96.78 444.93,116.201C447.611,137.906 440.509,156.549 424.896,171.326C414.315,181.34 406.015,192.161 402.276,206.391C399.068,218.597 393.206,230.042 391.711,242.757C390.849,250.096 391.023,257.356 393.135,264.51C394.137,267.904 395.804,269.779 399.82,269.748C403.899,269.717 407.711,268.987 411.568,267.897C417.624,266.186 423.573,265.473 429.279,269.38C432.339,271.476 436.076,270.824 439.528,270.568C442.426,270.354 444.22,271.124 445.389,273.92C447.361,278.633 450.245,282.306 455.435,284.327C459.827,286.039 461.523,290.782 463.454,294.807C466.113,300.351 468.164,306.189 471.943,311.157C474.09,313.98 473.41,316.928 471.688,319.56C468.501,324.433 467.288,329.899 466.189,335.476C465.149,340.752 463.275,345.717 458.915,350.397C465.083,348.434 469.507,345.084 473.616,341.438C494.91,322.547 518.503,306.978 543.265,293.117C547.401,290.802 548.75,288.487 548.314,283.323C547.423,272.763 543.273,265.058 533.414,261.087C520.858,256.029 512.984,231.176 518.983,218.768C524.332,207.706 538.714,203.948 550.287,211.334C556.858,215.527 560.341,221.821 562.165,229.18C563.006,232.573 563.537,236.056 564.561,239.39C567.935,250.372 580.103,253.269 588.331,245.306C596.165,237.725 598.889,227.764 601.649,217.806C603.929,209.579 604.539,201.105 604.811,192.612C605.01,186.382 607.177,180.828 610.898,175.992C614.335,171.525 619.668,172.595 624.349,172.492C640.218,172.141 655.039,188.075 653.074,203.727C651.767,214.135 646.26,222.727 639.289,230.384C634.672,235.454 629.261,239.629 624.021,244.007C621.651,245.987 619.088,248.046 620.152,251.951C622.125,259.191 624.16,260.102 630.626,256.393C641.167,250.348 651.499,243.834 663.957,242.275C679.655,240.311 690.91,249.668 697.173,261.419C698.969,264.789 698.926,268.983 696.471,272.395C690.268,281.018 682.495,287.055 671.245,287.227C663.406,287.346 655.61,287.319 647.872,285.675C645.139,285.094 642.245,285.17 639.422,285.134C635.634,285.085 634,287.679 632.603,290.749C631.226,293.774 631.802,296.262 634.035,298.453C639.265,303.587 644.602,308.611 649.806,313.769C657.245,321.142 660.059,329.82 657.363,340.194C656.605,343.111 655.08,344.83 652.46,345.972C642.587,350.279 633.179,348.247 624.075,343.718C620.063,341.722 616.095,339.463 612.54,336.755C600.379,327.493 586.981,325.423 572.049,327.622C555.056,330.126 542.044,339.909 528.731,349.241C508.809,363.207 490.298,379.029 471.056,393.892C459.296,402.975 445.908,409.588 433.965,418.384C429.144,421.935 424.388,425.551 421.077,430.762C416.801,437.492 416.749,444.489 418.884,451.863C424.187,470.172 423.891,488.199 416.805,506.152C405.681,534.333 403.704,563.213 410.102,592.936C414.553,613.612 418.869,634.254 426.723,653.976C429.824,661.763 433.304,669.606 439.153,675.478C448.291,684.653 449.97,695.972 451.208,707.84C453.432,729.171 455.277,750.573 458.513,771.757C460.82,786.86 467.796,800.887 470.913,815.926C472.763,824.852 477.304,832.662 482.561,840.035C483.031,840.693 483.613,841.271 484.195,841.946C484.771,841.674 485.404,841.589 485.578,841.261C491.466,830.154 498.398,819.647 500.861,806.846C503.088,795.272 506.899,784.015 512.228,773.378C515.556,766.736 519.966,761.688 528.217,761.926C530.788,762 531.941,759.975 533.22,758.257C543.897,743.916 558.887,741.408 575.138,743.696C583.886,744.927 596.179,758.59 597.295,767.355C597.658,770.204 599.34,770.831 601.271,771.761C608.104,775.049 609.297,778.458 604.99,784.776C600.138,791.894 595.439,799.307 586.486,802.28C583.304,803.337 582.624,806.725 581.616,809.49C576.403,823.788 568.863,836.562 557.619,846.997C551.86,852.342 545.72,857.305 539.046,861.317C525.442,869.495 515.483,881.201 505.91,893.427C503.135,896.971 499.916,900.133 496.355,902.893C486.233,910.74 473.483,909.951 464.177,901.089C454.386,891.764 450.022,879.554 445.856,867.199C441.154,853.258 438.747,838.775 436.009,824.404C433.074,809.001 426.579,795.24 417.794,782.586C407.316,767.494 400.746,751.018 398.036,732.951C397.638,730.3 396.763,728.768 394.094,727.989C389.186,726.557 384.845,723.534 379.425,722.406C379.342,727.298 382.01,730.84 384.128,734.463C390.424,745.229 398.278,755.085 402.873,766.842C405.441,773.413 407.955,779.968 405.012,787.5M427.281,350.141C420.013,349.526 413.347,347.569 407.546,342.75C405.552,341.093 402.612,338.013 399.741,341.172C393.717,347.8 387.497,354.468 383.499,362.515C378.935,371.702 385.903,382.284 395.359,381.424C408.681,380.212 420.441,375.107 430.716,366.692C435.84,362.496 440.434,357.619 447.231,355.539C441.448,356.03 436.181,355.605 431.874,351.319C431.06,350.508 429.381,350.567 427.281,350.141Z" style="fill:rgb(228,214,175);fill-rule:nonzero;"/>
</svg>
