<svg version="1.1" id="Layer_1" xmlns="http://www.w3.org/2000/svg" xmlns:xlink="http://www.w3.org/1999/xlink" x="0px" y="0px"
	 width="100%" viewBox="0 0 736 944" enable-background="new 0 0 736 944" xml:space="preserve">
<path fill="#000000" opacity="1.000000" stroke="none" 
	d="
M405.011597,787.499634 
	C401.237976,793.764343 396.864838,797.550354 390.051056,792.810303 
	C387.968323,795.222961 388.419373,797.471375 388.401062,799.581848 
	C388.323212,808.580017 388.588348,817.590210 388.215057,826.574646 
	C387.711761,838.687317 386.004730,850.381226 376.490417,859.518311 
	C372.697784,863.160583 370.021820,867.957825 366.775421,872.181580 
	C365.886505,873.338135 364.816528,875.213074 363.290802,874.548279 
	C358.493225,872.457886 357.524017,876.099365 356.129608,878.994324 
	C350.283051,891.132690 342.469452,901.809021 332.741180,911.123596 
	C326.915741,916.701294 320.563202,915.650879 317.142395,908.404724 
	C315.780762,905.520508 314.865723,902.497375 314.663818,899.301880 
	C314.487488,896.511108 313.249023,895.309875 310.280579,895.097656 
	C302.378204,894.532532 298.892059,890.848755 298.875519,882.945374 
	C298.846039,868.862854 304.615845,856.432373 310.398071,844.029602 
	C312.485107,839.553040 315.340302,835.390747 316.389648,830.130554 
	C314.964111,830.130554 313.818237,830.230408 312.694855,830.113770 
	C307.027679,829.525208 304.153717,825.529114 305.510315,820.016663 
	C307.400299,812.336731 311.150726,805.445190 314.836609,798.537720 
	C317.403809,793.726624 320.312195,789.066040 321.349091,783.929260 
	C320.641693,782.445862 319.646912,782.376343 318.628693,782.290894 
	C311.969025,781.732422 309.305573,778.981873 308.774261,772.301025 
	C308.065369,763.386719 309.484070,754.699951 311.687439,746.134460 
	C313.247559,740.069519 318.463287,736.363464 321.809021,731.439270 
	C322.818298,729.953918 324.313324,728.787598 324.739288,726.482666 
	C322.019135,725.816772 320.290039,727.660095 318.466614,728.702515 
	C311.839569,732.491272 305.296600,735.582092 297.386536,736.901855 
	C280.930939,739.647400 265.726379,746.916504 250.245499,752.986816 
	C245.166962,754.978210 242.242157,759.258179 240.040527,764.128906 
	C234.223297,776.998474 226.985657,788.823364 215.794479,797.908142 
	C212.334137,800.717163 209.384033,804.213806 206.472458,807.627686 
	C200.365051,814.788635 197.647903,823.560730 195.139465,832.407471 
	C192.936234,840.177734 190.199158,847.596802 183.254089,852.653503 
	C176.407120,857.638916 170.628983,857.348572 164.504944,851.404785 
	C160.115021,847.143921 157.190933,841.901550 154.804214,836.386719 
	C152.228073,830.434143 149.639984,824.445312 147.690628,818.272278 
	C144.460846,808.044556 139.574356,799.134033 131.250244,792.037720 
	C125.280075,786.948120 122.286888,779.711792 119.729683,772.427551 
	C117.876335,767.148315 114.710777,762.791321 109.652084,760.534485 
	C94.525726,753.786011 94.723694,741.483582 102.065216,728.388306 
	C106.938309,719.695984 114.888023,714.861511 125.122627,715.074036 
	C129.902725,715.173279 132.060120,714.025269 131.900131,708.709167 
	C131.777969,704.650513 132.728271,700.409668 133.960358,696.488342 
	C137.535065,685.111328 145.907288,680.450012 157.603668,683.045532 
	C160.349411,683.654846 163.097153,684.515076 165.648361,685.686035 
	C170.718094,688.012817 175.955276,688.187195 181.302246,687.443726 
	C190.278107,686.195618 196.538116,690.763428 197.620026,699.523865 
	C198.613632,707.569397 197.532715,715.101868 192.363770,721.748047 
	C189.663971,725.219299 189.118515,729.135803 190.104111,733.553650 
	C192.059662,742.319092 193.583893,751.180542 195.314453,759.996765 
	C195.686554,761.892395 195.649414,764.024536 198.026749,765.267822 
	C201.877869,761.927795 203.411911,757.119019 204.237778,752.624268 
	C208.391998,730.014709 223.211533,715.826294 241.491989,704.312744 
	C252.058319,697.657837 262.744690,691.167725 273.631653,685.057129 
	C280.378693,681.270142 282.948486,676.337463 281.519012,668.652100 
	C279.048767,655.371033 282.588043,643.084717 287.901001,630.893188 
	C298.825043,605.826172 306.313995,579.528870 314.243500,553.419434 
	C315.986572,547.679810 314.197601,541.820374 311.505096,536.500793 
	C305.701172,525.033752 301.499603,513.298035 303.601715,500.079620 
	C304.735779,492.948334 307.033234,486.226776 309.676941,479.571014 
	C314.568970,467.255005 313.389282,454.774353 310.636353,442.250366 
	C309.911011,438.950684 307.126038,438.536407 304.594604,437.833191 
	C292.398560,434.445068 280.137390,431.187012 268.779907,425.452393 
	C240.334976,411.089874 209.259506,405.581024 178.659897,398.468536 
	C176.245407,397.907318 173.593887,397.831421 171.251480,398.831848 
	C164.591507,401.676270 157.820053,400.934326 151.244370,399.118835 
	C145.742630,397.599792 140.162430,400.770782 138.234665,406.233124 
	C136.279938,411.771759 135.371628,417.522247 134.345886,423.238129 
	C133.606354,427.359039 132.661194,431.388885 131.238617,435.305817 
	C127.080688,446.754395 116.094749,451.444458 104.862686,446.715515 
	C102.756020,445.828583 101.999321,444.251770 101.281837,442.284821 
	C97.781654,432.689148 99.496841,423.252106 101.965027,413.832855 
	C102.512817,411.742401 103.147339,409.714783 102.426720,407.086304 
	C95.829086,410.617645 90.767189,415.718658 85.031601,419.867004 
	C78.700623,424.446045 72.776260,429.709869 65.265488,432.346497 
	C52.162544,436.946289 49.584003,434.519440 45.905602,421.339905 
	C42.254848,408.259491 48.054379,397.996674 58.110947,389.896576 
	C65.466873,383.971771 73.889015,380.099274 82.936569,377.365021 
	C86.018143,376.433746 90.958649,376.047882 90.458565,371.538239 
	C89.993622,367.345398 85.158737,368.203308 82.139854,367.646332 
	C74.644447,366.263428 66.871666,367.028961 59.430210,364.841736 
	C54.756062,363.467896 50.493778,361.272766 46.161594,359.128906 
	C38.768948,355.470490 36.569889,349.444275 37.904335,341.809692 
	C38.886017,336.193298 43.772045,333.931244 48.000870,331.507050 
	C56.394146,326.695526 65.640671,326.853333 74.768478,328.467224 
	C85.565620,330.376251 96.251579,332.910004 106.999611,335.105011 
	C108.781601,335.468933 110.643219,335.423035 112.452866,335.675323 
	C116.900398,336.295410 118.976624,334.361603 120.209473,330.016815 
	C122.885643,320.585449 124.868477,310.898102 129.216522,302.002777 
	C134.711670,290.760773 143.862457,283.866241 155.888763,281.386322 
	C169.142105,278.653412 178.257126,289.625153 174.029221,302.510986 
	C170.332611,313.777496 162.737839,322.834808 156.883682,332.874847 
	C153.349213,338.936523 150.147690,345.069916 148.034378,351.823547 
	C146.743927,355.947510 148.039108,357.682068 151.856354,358.633667 
	C164.930405,361.892822 177.890137,365.678467 191.064209,368.452515 
	C210.261826,372.494995 229.374176,376.948212 248.704269,380.399628 
	C259.346558,382.299774 270.017639,382.190796 280.562683,381.342712 
	C291.139343,380.492096 301.464203,382.060303 311.903351,382.371521 
	C315.543671,382.480072 319.163544,383.212280 322.804932,383.361053 
	C328.544556,383.595520 331.714417,380.491425 331.121002,374.756775 
	C330.540527,369.147522 329.289612,363.608154 328.348877,358.035431 
	C327.851990,355.092163 326.126251,353.954956 323.161804,353.864136 
	C316.134094,353.648773 309.811005,356.357849 303.335358,358.381256 
	C296.347382,360.564789 289.445038,363.022186 282.504089,365.356384 
	C271.020966,369.218018 259.720581,368.847687 248.289200,364.700714 
	C235.680389,360.126526 235.615448,360.366333 231.337082,347.668121 
	C229.211700,341.359985 227.117676,335.034363 224.725311,328.826141 
	C223.589203,325.877930 223.609940,323.370117 225.545776,320.881470 
	C228.970078,316.479309 231.088135,311.461761 232.764389,306.171783 
	C234.545837,300.549774 237.792633,296.036316 243.618866,293.913879 
	C247.472351,292.510071 249.045029,289.123413 250.498749,285.764130 
	C251.672333,283.052216 253.205551,281.717682 256.411896,281.509460 
	C261.655273,281.168976 266.758911,280.513794 271.331879,276.849396 
	C274.351624,274.429565 278.754028,275.823730 282.442322,276.994324 
	C287.351624,278.552429 292.226746,280.227753 297.069611,281.982300 
	C300.369263,283.177795 302.106934,281.514862 302.271973,278.678040 
	C302.709351,271.159119 306.606964,265.008972 310.158844,258.913818 
	C318.128326,245.237808 314.469330,235.178696 304.447388,224.780243 
	C300.632507,220.822037 296.734314,216.942261 292.813507,213.088394 
	C285.083679,205.490494 279.763580,196.809753 279.547577,185.543106 
	C279.432220,179.528229 277.168152,173.970795 273.327148,169.532501 
	C264.293365,159.093887 263.347260,146.896530 265.171356,134.213409 
	C268.642395,110.078972 276.593170,87.044746 283.217834,63.693138 
	C283.992340,60.963039 285.537109,58.560596 288.031494,56.882175 
	C293.698792,53.068787 297.013306,53.991447 299.344574,60.331406 
	C305.160583,76.148170 309.237396,92.460869 312.345367,108.983047 
	C316.205505,129.503845 324.074890,148.411011 333.953491,166.656693 
	C339.104034,176.169724 343.703217,185.981201 348.557465,195.654846 
	C349.515106,197.563217 350.219543,199.710403 353.191498,200.415375 
	C356.393829,196.184357 357.417969,190.921036 358.726837,185.896301 
	C362.205658,172.541016 365.401428,159.111542 368.657593,145.698914 
	C370.240265,139.179611 373.619568,133.978622 378.591370,129.362167 
	C390.555328,118.253296 395.848816,103.514717 399.678192,88.153374 
	C402.251678,77.829987 403.551697,67.197876 406.988922,57.087555 
	C408.162811,53.634670 409.648102,50.246429 411.368713,47.030701 
	C413.711212,42.652794 419.311554,42.157482 422.576385,45.997227 
	C426.037384,50.067616 429.017090,54.443604 430.606354,59.680542 
	C436.257385,78.301994 442.530823,96.779999 444.929962,116.201439 
	C447.611023,137.905823 440.508820,156.549286 424.895538,171.326202 
	C414.314850,181.340179 406.015472,192.160660 402.275787,206.390991 
	C399.068115,218.596909 393.205566,230.041687 391.711334,242.757278 
	C390.848938,250.096115 391.022644,257.356049 393.134674,264.509705 
	C394.136688,267.903595 395.803925,269.778656 399.819855,269.748169 
	C403.899017,269.717163 407.711304,268.986816 411.567657,267.897064 
	C417.623535,266.185730 423.572693,265.472504 429.278717,269.380096 
	C432.339478,271.476196 436.076324,270.823700 439.527740,270.568420 
	C442.426239,270.354034 444.219910,271.124146 445.389374,273.919586 
	C447.361298,278.633209 450.245422,282.305939 455.434540,284.327393 
	C459.827240,286.038605 461.523407,290.782196 463.453796,294.806915 
	C466.112885,300.350739 468.163910,306.188782 471.942566,311.157043 
	C474.089844,313.980347 473.409851,316.927551 471.687866,319.560242 
	C468.500977,324.432556 467.288422,329.899414 466.189301,335.476074 
	C465.149384,340.752380 463.275146,345.716919 458.914886,350.397003 
	C465.083099,348.434052 469.507233,345.083710 473.616119,341.438385 
	C494.910217,322.546936 518.502747,306.978241 543.264771,293.117340 
	C547.401306,290.801880 548.749939,288.486511 548.314148,283.323242 
	C547.422791,272.762573 543.272644,265.057770 533.414490,261.086670 
	C520.858459,256.028839 512.984253,231.175781 518.983398,218.768204 
	C524.332214,207.705521 538.714050,203.948425 550.287415,211.333847 
	C556.858459,215.527115 560.340942,221.820892 562.165161,229.180176 
	C563.006348,232.573471 563.536621,236.055908 564.560791,239.389511 
	C567.934753,250.372070 580.103394,253.268677 588.330811,245.306442 
	C596.164856,237.724915 598.889465,227.764221 601.648865,217.806244 
	C603.928711,209.579468 604.539368,201.104614 604.811035,192.612320 
	C605.010376,186.381744 607.177246,180.828079 610.898254,175.991821 
	C614.334900,171.525040 619.667664,172.595139 624.348633,172.491669 
	C640.218323,172.140884 655.039124,188.075348 653.073608,203.727158 
	C651.766663,214.134796 646.259521,222.727127 639.288635,230.384003 
	C634.672424,235.454453 629.260681,239.628525 624.020569,244.007034 
	C621.651428,245.986679 619.088013,248.045532 620.152161,251.950607 
	C622.125122,259.190948 624.159546,260.101715 630.625854,256.393066 
	C641.166504,250.347702 651.499390,243.833572 663.956665,242.275070 
	C679.655396,240.311005 690.909790,249.668350 697.173035,261.419220 
	C698.969421,264.789459 698.926086,268.982544 696.471313,272.394836 
	C690.267517,281.018341 682.495361,287.054840 671.245300,287.226593 
	C663.405762,287.346252 655.609802,287.318512 647.872375,285.674713 
	C645.138916,285.093964 642.245117,285.169983 639.422119,285.133789 
	C635.634399,285.085236 634.000000,287.678864 632.602783,290.748932 
	C631.225891,293.774292 631.802246,296.261719 634.035034,298.453308 
	C639.264709,303.586517 644.602112,308.610504 649.806458,313.769012 
	C657.245239,321.142273 660.058594,329.820251 657.363281,340.194397 
	C656.605469,343.111328 655.079529,344.829742 652.460449,345.972260 
	C642.586731,350.279358 633.178833,348.246643 624.075195,343.717987 
	C620.063110,341.722076 616.095276,339.462708 612.539917,336.754944 
	C600.378845,327.492981 586.981079,325.423035 572.049316,327.622498 
	C555.056396,330.125580 542.044250,339.908936 528.731079,349.241486 
	C508.808868,363.206879 490.298309,379.029053 471.055511,393.891602 
	C459.295624,402.974579 445.907867,409.588165 433.965424,418.383789 
	C429.143738,421.934967 424.388000,425.550873 421.076874,430.762024 
	C416.800842,437.491730 416.748840,444.489288 418.884277,451.862823 
	C424.186920,470.172485 423.891449,488.199158 416.805145,506.151672 
	C405.681244,534.333008 403.704407,563.212585 410.102234,592.935547 
	C414.552917,613.612427 418.868896,634.253662 426.723175,653.975647 
	C429.824371,661.762634 433.304108,669.605713 439.152557,675.477722 
	C448.291382,684.653320 449.970215,695.972229 451.207672,707.840027 
	C453.431854,729.171143 455.276520,750.572998 458.512726,771.756958 
	C460.819916,786.859863 467.795685,800.887207 470.912537,815.926270 
	C472.762512,824.852478 477.303802,832.662231 482.561127,840.034607 
	C483.030792,840.693298 483.613403,841.271423 484.194550,841.946228 
	C484.770538,841.673767 485.403625,841.589050 485.577576,841.260864 
	C491.466064,830.153564 498.398010,819.647217 500.861328,806.845764 
	C503.088440,795.271729 506.898651,784.014709 512.228027,773.378052 
	C515.556152,766.735596 519.966492,761.688110 528.216919,761.925842 
	C530.788391,762.000000 531.941467,759.975098 533.220398,758.257263 
	C543.897095,743.916199 558.887085,741.408020 575.138123,743.695801 
	C583.886108,744.927246 596.179138,758.589661 597.295044,767.355347 
	C597.657715,770.204346 599.339600,770.830872 601.271240,771.760620 
	C608.103943,775.049133 609.296631,778.458496 604.990234,784.775818 
	C600.137756,791.894226 595.439087,799.306824 586.486084,802.280029 
	C583.303528,803.337036 582.624268,806.724548 581.615845,809.490417 
	C576.402527,823.788452 568.863098,836.561951 557.618652,846.997498 
	C551.860229,852.341614 545.719971,857.305298 539.045959,861.317383 
	C525.442261,869.495300 515.482666,881.200500 505.910248,893.427124 
	C503.135376,896.971375 499.915619,900.133179 496.355499,902.892944 
	C486.233093,910.739685 473.482758,909.950562 464.176941,901.088623 
	C454.385559,891.764282 450.021881,879.554016 445.855652,867.199463 
	C441.154449,853.258484 438.746918,838.775269 436.008759,824.403809 
	C433.074005,809.000671 426.578705,795.240295 417.793579,782.586304 
	C407.316010,767.494446 400.746368,751.018250 398.035919,732.950562 
	C397.638245,730.299561 396.763184,728.768127 394.093994,727.989380 
	C389.185791,726.557312 384.844788,723.533936 379.424988,722.405579 
	C379.342407,727.298401 382.009613,730.840271 384.128174,734.463135 
	C390.423828,745.228760 398.277710,755.084839 402.873230,766.842468 
	C405.441406,773.413269 407.954987,779.967773 405.011597,787.499634 
M427.280579,350.140991 
	C420.013062,349.525635 413.347443,347.568970 407.546173,342.749878 
	C405.551544,341.092926 402.611664,338.012878 399.740845,341.171631 
	C393.716522,347.800262 387.496643,354.468445 383.499359,362.514526 
	C378.934845,371.702423 385.903168,382.283508 395.359467,381.423523 
	C408.681000,380.212006 420.441010,375.107300 430.715942,366.692200 
	C435.840118,362.495544 440.433685,357.618896 447.231140,355.539032 
	C441.448120,356.029724 436.181335,355.605072 431.874298,351.318848 
	C431.059998,350.508423 429.381409,350.566528 427.280579,350.140991 
z"/>
</svg>